<svg xmlns="http://www.w3.org/2000/svg" version="1.1" xmlns:xlink="http://www.w3.org/1999/xlink" xmlns:svgjs="http://svgjs.dev/svgjs" width="100%" height="100%" viewBox="0 0 1000 600"><rect width="1000" height="600" x="0" y="0" fill="#ffffff"/><g><rect width="333.3333333333333" height="333.3333333333333" y="194.28602452846118" fill="#fcffeb" transform="matrix(0.7264748776142868,0,0,0.7264748776142869,0,37.776964542352886)" x="172.0638427734375"/><path d="M274.7193731325247 360.95268059416196L274.7193731325247 360.95268059416196Q274.7193731325247 342.58413835083525 279.67829268383815 328.528975835574Q284.63721223515165 314.47381332031284 293.5280561644296 304.9667722870255Q302.389557374469 295.45973125373814 314.00927419293134 290.70621073709447Q325.6289910113936 285.9526902204508 338.74518651102153 285.9526902204508L338.74518651102153 285.9526902204508Q351.83203929141087 285.9526902204508 363.45175610987314 290.70621073709447Q375.0714729283355 295.45973125373814 383.9329741383749 304.9667722870255Q392.8238180676529 314.47381332031284 397.7827376189663 328.528975835574Q402.7416571702798 342.58413835083525 402.7416571702798 360.95268059416196L402.7416571702798 360.95268059416196Q402.7416571702798 379.32122283748873 397.7827376189663 393.37638535274994Q392.8238180676529 407.4315478680112 383.9329741383749 416.93858890129854Q375.0714729283355 426.44562993458584 363.45175610987314 431.1991504512295Q351.83203929141087 435.9526709678732 338.74518651102153 435.9526709678732L338.74518651102153 435.9526709678732Q325.6289910113936 435.9526709678732 314.00927419293134 431.1991504512295Q302.389557374469 426.44562993458584 293.5280561644296 416.93858890129854Q284.63721223515165 407.4315478680112 279.67829268383815 393.37638535274994Q274.7193731325247 379.32122283748873 274.7193731325247 360.95268059416196ZM295.6407319496045 360.95268059416196L295.6407319496045 360.95268059416196Q295.6407319496045 374.89047223246905 298.8977737850826 385.45385115834387Q302.18415833979924 396.0172300842187 307.9940167490304 403.08882542070705Q313.8038751582615 410.18976347643405 321.6090384757135 413.6522043465819Q329.44354451240395 417.1439879359683 338.74518651102153 417.1439879359683L338.74518651102153 417.1439879359683Q348.01748579040054 417.1439879359683 355.851991827091 413.6522043465819Q363.65715514454297 410.18976347643405 369.4670135537741 403.08882542070705Q375.2768719630053 396.0172300842187 378.56325651772187 385.45385115834387Q381.8202983531999 374.89047223246905 381.8202983531999 360.95268059416196L381.8202983531999 360.95268059416196Q381.8202983531999 347.01488895585493 378.56325651772187 336.4515100299801Q375.2768719630053 325.8881311041053 369.4670135537741 318.81653576761687Q363.65715514454297 311.7155977118899 355.851991827091 308.2531568417421Q348.01748579040054 304.76137325235567 338.74518651102153 304.76137325235567L338.74518651102153 304.76137325235567Q329.44354451240395 304.76137325235567 321.6090384757135 308.2531568417421Q313.8038751582615 311.7155977118899 307.9940167490304 318.81653576761687Q302.18415833979924 325.8881311041053 298.8977737850826 336.4515100299801Q295.6407319496045 347.01488895585493 295.6407319496045 360.95268059416196Z " fill="#474350" transform="matrix(0.7264748776142868,0,0,0.7264748776142869,0,37.776964542352886)"/><path d="M588.7305120722042 364.4761811235484L588.7305120722042 364.4761811235484Q588.7305120722042 346.9705893281339 593.4564625728831 333.5757355421858Q598.1824130735621 320.1808817562376 606.6555669298091 311.1204796129241Q615.10075658191 302.0600774696105 626.1745814237377 297.52987639795373Q637.2484062655653 292.99967532629694 649.7484055188405 292.99967532629694L649.7484055188405 292.99967532629694Q662.2204405679697 292.99967532629694 673.2942654097974 297.52987639795373Q684.3680902516251 302.0600774696105 692.813279903726 311.1204796129241Q701.2864337599729 320.1808817562376 706.0123842606519 333.5757355421858Q710.7383347613309 346.9705893281339 710.7383347613309 364.4761811235484L710.7383347613309 364.4761811235484Q710.7383347613309 381.98177291896286 706.0123842606519 395.37662670491096Q701.2864337599729 408.7714804908591 692.813279903726 417.83188263417264Q684.3680902516251 426.8922847774862 673.2942654097974 431.422485849143Q662.2204405679697 435.9526869207998 649.7484055188405 435.9526869207998L649.7484055188405 435.9526869207998Q637.2484062655653 435.9526869207998 626.1745814237377 431.422485849143Q615.10075658191 426.8922847774862 606.6555669298091 417.83188263417264Q598.1824130735621 408.7714804908591 593.4564625728831 395.37662670491096Q588.7305120722042 381.98177291896286 588.7305120722042 364.4761811235484ZM608.6689896283232 364.4761811235484L608.6689896283232 364.4761811235484Q608.6689896283232 377.75917809291235 611.7730162885325 387.82629158548303Q614.9050071528877 397.89340507805366 620.4419195738017 404.6327782772467Q625.9788319947154 411.4001156805859 633.4173102975593 414.6998917698173Q640.8837528045492 418.02763206319486 649.7484055188405 418.02763206319486L649.7484055188405 418.02763206319486Q658.5850940289858 418.02763206319486 666.0515365359757 414.6998917698173Q673.4900148388197 411.4001156805859 679.0269272597334 404.6327782772467Q684.5638396806473 397.89340507805366 687.6958305450025 387.82629158548303Q690.7998572052119 377.75917809291235 690.7998572052119 364.4761811235484L690.7998572052119 364.4761811235484Q690.7998572052119 351.19318415418434 687.6958305450025 341.12607066161377Q684.5638396806473 331.0589571690431 679.0269272597334 324.31958396985Q673.4900148388197 317.55224656651086 666.0515365359757 314.2524704772794Q658.5850940289858 310.92473018390183 649.7484055188405 310.92473018390183L649.7484055188405 310.92473018390183Q640.8837528045492 310.92473018390183 633.4173102975593 314.2524704772794Q625.9788319947154 317.55224656651086 620.4419195738017 324.31958396985Q614.9050071528877 331.0589571690431 611.7730162885325 341.12607066161377Q608.6689896283232 351.19318415418434 608.6689896283232 364.4761811235484ZM739.3457156027191 339.30839739212183L735.9061184927574 288.9728299292687L756.4598085400892 288.9728299292687L753.0202114301276 339.30839739212183L739.3457156027191 339.30839739212183ZM781.6275922715156 364.4761811235484L781.6275922715156 364.4761811235484Q781.6275922715156 347.1663387571561 786.5492922012169 333.8833417877921Q791.470992130918 320.57238061428205 800.2517522327713 311.5119784709685Q809.0045481304785 302.45157632765495 820.3859792179126 297.72562582697594Q831.7394461012005 292.99967532629694 844.6309442125201 292.99967532629694L844.6309442125201 292.99967532629694Q856.7114804036049 292.99967532629694 867.5895558164104 297.83748264356007Q878.4676312292158 302.6752899608232 887.5280333725294 311.5119784709685L887.5280333725294 311.5119784709685L873.8255733409749 324.5992260113103Q867.5895558164104 318.16745905772353 860.2349701260046 314.7558261519079Q852.8803844355989 311.31622904194626 844.6309442125201 311.31622904194626L844.6309442125201 311.31622904194626Q832.3546585924132 311.31622904194626 822.5951513454489 317.35649713748865Q812.8356440984846 323.39676523303103 807.1868748609867 335.28155199509354Q801.5381056234887 347.1663387571561 801.5381056234887 364.4761811235484L801.5381056234887 364.4761811235484Q801.5381056234887 381.78602348994065 807.1868748609867 393.6708102520032Q812.8356440984846 405.5555970140657 822.5951513454489 411.5958651096081Q832.3546585924132 417.6361332051505 844.6309442125201 417.6361332051505L844.6309442125201 417.6361332051505Q854.1108094180241 417.6361332051505 861.9407865789124 414.19653609518883Q869.7987279439467 410.7849031893732 876.0347454685113 403.933673173596L876.0347454685113 403.933673173596L889.1219930088531 417.0209207139378Q880.0615908655395 426.27707228627355 868.9038734112737 431.1148796035367Q857.7181917528619 435.9526869207998 844.6309442125201 435.9526869207998L844.6309442125201 435.9526869207998Q831.7394461012005 435.9526869207998 820.3859792179126 431.3106290325589Q809.0045481304785 426.696535348464 800.2517522327713 417.52427638856636Q791.470992130918 408.3799816328147 786.5492922012169 395.0690204593046Q781.6275922715156 381.78602348994065 781.6275922715156 364.4761811235484ZM935.8501781368684 433.93926422228566L917.3099107880508 433.93926422228566L917.3099107880508 289.97954127852574L935.8501781368684 285.9526958814975L935.8501781368684 343.7267416471945Q942.2819450904551 336.67976220239507 950.4474927010958 332.4571673763446Q958.5850761075903 328.23457255029416 967.6454782509039 328.23457255029416L967.6454782509039 328.23457255029416Q977.9363053766428 328.23457255029416 986.0738887831374 332.876630438535Q994.2394363937781 337.4907241226299 998.965386894457 346.74687569496564Q1003.6913373951361 356.03099147144746 1003.6913373951361 370.32069979006855L1003.6913373951361 370.32069979006855L1003.6913373951361 433.93926422228566L985.1790342504645 433.93926422228566L985.1790342504645 372.72562134662707Q985.1790342504645 358.6316624570282 978.8311599093157 352.19989550344144Q972.483285568167 345.7401643457086 962.8356351377868 345.7401643457086L962.8356351377868 345.7401643457086Q955.7886556929875 345.7401643457086 948.9374256772103 348.98401202664803Q942.0861956614331 352.19989550344144 935.8501781368684 358.04441416996156L935.8501781368684 358.04441416996156L935.8501781368684 433.93926422228566ZM1032.885966523591 407.37327028355764L1032.885966523591 407.37327028355764Q1032.885966523591 398.31286814024406 1037.723773840854 390.65067620423196Q1042.561581158117 382.9884842682199 1053.6354059999446 377.9549275219346Q1064.7092308417723 372.9213707756493 1083.417283415466 372.3341224885827L1083.417283415466 372.3341224885827L1094.491108257294 371.91465942639223L1094.491108257294 370.7121986481129Q1094.491108257294 357.42920167874894 1088.255090732729 351.6965398288129Q1082.0190732081646 345.96387797887684 1070.945248366337 345.96387797887684L1070.945248366337 345.96387797887684Q1062.8915575722804 345.96387797887684 1056.0403275565031 348.36879953543536Q1049.189097540726 350.77372109199393 1042.3658317290947 354.60481705999996L1042.3658317290947 354.60481705999996L1035.906100571362 338.9168985340774Q1042.9530800161615 334.4705900748587 1053.2159429377543 331.3665634146494Q1063.5067700634931 328.23457255029416 1072.762921635829 328.23457255029416L1072.762921635829 328.23457255029416Q1084.2282453357009 328.23457255029416 1093.2886474790146 332.6529168053668Q1102.349049622328 337.09922526458547 1107.6902126142197 346.04777059131493Q1113.0313756061114 355.02428012219036 1113.0313756061114 368.5030265205766L1113.0313756061114 368.5030265205766L1113.0313756061114 409.38669298207174Q1113.0313756061114 413.6092878081222 1113.3389818517176 417.13277753052193Q1113.618623893178 420.6562672529217 1114.4295858134128 425.0746115079943L1114.4295858134128 425.0746115079943L1116.0515096538825 433.93926422228566L1098.7416672874901 433.93926422228566L1095.721533239719 419.2300928414742Q1089.6812651441767 426.5007859194418 1080.7047556133011 431.2267364201208Q1071.7562102865718 435.9526869207998 1061.493347364979 435.9526869207998L1061.493347364979 435.9526869207998Q1054.0269048579892 435.9526869207998 1047.483281087818 432.5410540149842Q1040.9396573176473 429.1014569050226 1036.912811920619 422.66968995143577Q1032.885966523591 416.2099587937029 1032.885966523591 407.37327028355764ZM1051.8177327304527 405.7513464430879L1051.8177327304527 405.7513464430879Q1051.8177327304527 411.9873639676525 1055.5369718818747 415.51085369005216Q1059.2562110332965 419.0343434124519 1065.5201927620074 419.0343434124519L1065.5201927620074 419.0343434124519Q1073.1544204938732 419.0343434124519 1080.509006184279 415.4269610776141Q1087.8635918746847 411.79161453863026 1094.491108257294 405.5555970140657L1094.491108257294 405.5555970140657L1094.491108257294 385.22562059990224L1084.2282453357009 386.2323319491593Q1071.1409977953592 387.4347927274386 1064.0940183505597 390.4549267752098Q1057.0470389057602 393.47506082298094 1054.4463679201795 397.3900494034251Q1051.8177327304527 401.33300218801526 1051.8177327304527 405.7513464430879ZM1152.2931182271368 346.35537683692127L1134.1723139405096 346.35537683692127L1134.1723139405096 330.24799524880825L1152.2931182271368 330.24799524880825L1152.2931182271368 306.282672295661L1170.8054213718083 302.25582689863273L1170.8054213718083 330.24799524880825L1201.4262249117105 330.24799524880825L1201.4262249117105 346.35537683692127L1170.8054213718083 346.35537683692127L1170.8054213718083 402.5354629662945Q1170.8054213718083 410.589153760351 1174.6365173398144 414.9236054029856Q1178.4676133078206 419.2300928414742 1186.521304101877 419.2300928414742L1186.521304101877 419.2300928414742Q1189.9329370076925 419.2300928414742 1193.456426730092 418.3352383088012Q1196.9799164524918 417.4403837761282 1201.2025112785425 415.81845993565855L1201.2025112785425 415.81845993565855L1204.4463589594818 431.73009209474935Q1199.6085516422188 433.5477653642413 1194.155531833743 434.75022614252055Q1188.7304762294132 435.9526869207998 1183.3054206250836 435.9526869207998L1183.3054206250836 435.9526869207998Q1174.8322667688367 435.9526869207998 1167.7852873240372 432.1215909527938Q1160.7383078792377 428.29049498478764 1156.5157130531873 421.04776611096605Q1152.2931182271368 413.8050372371444 1152.2931182271368 403.34642488652935L1152.2931182271368 403.34642488652935L1152.2931182271368 346.35537683692127Z " fill="#474350" transform="matrix(0.7264748776142868,0,0,0.7264748776142869,0,37.776964542352886)"/></g></svg>